<svg xmlns="http://www.w3.org/2000/svg" width="7" height="12" viewBox="0 0 7 12">
  <path fill="#333333" fill-rule="evenodd" d="M6.64063292,5.57142091 C6.64063292,5.48213509 6.59599001,5.38168854 6.52902564,5.31472417 L1.32812658,0.113825116 C1.26116222,0.0468607508 1.16071567,0.0022178404 1.07142985,0.0022178404 C0.982144028,0.0022178404 0.88169748,0.0468607508 0.814733114,0.113825116 L0.256696735,0.671861496 C0.189732369,0.738825861 0.145089459,0.83927241 0.145089459,0.92855823 C0.145089459,1.01784405 0.189732369,1.1182906 0.256696735,1.18525496 L4.64286268,5.57142091 L0.256696735,9.95758685 C0.189732369,10.0245512 0.145089459,10.1249978 0.145089459,10.2142836 C0.145089459,10.3147301 0.189732369,10.404016 0.256696735,10.4709803 L0.814733114,11.0290167 C0.88169748,11.0959811 0.982144028,11.140624 1.07142985,11.140624 C1.16071567,11.140624 1.26116222,11.0959811 1.32812658,11.0290167 L6.52902564,5.82811764 C6.59599001,5.76115328 6.64063292,5.66070673 6.64063292,5.57142091 Z"/>
</svg>
